<svg height="512" viewBox="0 0 128 128" width="512" xmlns="http://www.w3.org/2000/svg"><g><path d="m17 64v-60.125h94v120.25h-94v-33.625" fill="#88e9ff"/><path d="m11.875 25h104.25v78h-104.25z" fill="#ffd671" transform="matrix(0 1 -1 0 128 0)"/><g fill="#15204f"><path d="m36.42 19.675h2.392l1.9 6.893 2.273-6.893h2.393l2.273 6.893 1.9-6.893h2.392l-3.11 10.273h-2.215l-2.418-7.058-2.437 7.058h-2.233z"/><path d="m59.54 28.333h-4.576l-.658 1.615h-2.467l4.187-10.273h2.467l4.187 10.273h-2.48zm-.763-1.869-1.525-3.753-1.525 3.753z"/><path d="m65.568 21.664h-3.2v-1.989h8.613v1.989h-3.2v8.284h-2.213z"/><path d="m72.06 24.8a5.47 5.47 0 0 1 9.45-3.588l-1.6 1.435a3.2 3.2 0 0 0 -2.392-1.147 3.315 3.315 0 0 0 0 6.625 3.2 3.2 0 0 0 2.392-1.151l1.6 1.435a5.556 5.556 0 0 1 -3.992 1.72 5.473 5.473 0 0 1 -5.458-5.329z"/><path d="m91.949 19.675v10.273h-2.2v-4.248h-4.679v4.247h-2.2v-10.272h2.2v4.038h4.681v-4.038z"/><path d="m41.512 35.1h2.418l5.444 7.3v-7.3h2.435v11.3h-2.435l-5.444-7.3v7.3h-2.418z"/><path d="m56.219 40.741a6.006 6.006 0 1 1 6 5.856 6.006 6.006 0 0 1 -6-5.856zm9.524 0a3.514 3.514 0 1 0 -3.52 3.652 3.636 3.636 0 0 0 3.52-3.652z"/><path d="m71.388 35.1h2.632l2.088 7.583 2.5-7.583h2.632l2.5 7.583 2.09-7.583h2.631l-3.421 11.3h-2.434l-2.665-7.763-2.681 7.763h-2.451z"/></g><g><circle cx="59.062" cy="81.195" fill="#f95353" r="25.516"/><path d="m95.534 97.077v9.529h-34.183a25.456 25.456 0 0 0 17.681-9.529z" fill="#f96e6e"/></g><g fill="#ffd671"><circle cx="59.062" cy="65.849" r="5.478"/><circle cx="73.053" cy="76.882" r="5.478"/><circle cx="68.454" cy="93.313" r="5.478"/><circle cx="49.99" cy="93.621" r="5.478"/><circle cx="45.028" cy="76.24" r="5.478"/></g><g fill="#15204f"><path d="m111 2.125h-94a1.75 1.75 0 0 0 -1.75 1.75v60.125a1.75 1.75 0 0 0 3.5 0v-58.375h90.5v116.75h-90.5v-31.875a1.75 1.75 0 0 0 -3.5 0v33.625a1.75 1.75 0 0 0 1.75 1.75h94a1.75 1.75 0 0 0 1.75-1.75v-120.25a1.75 1.75 0 0 0 -1.75-1.75z"/><path d="m103 117.875a1.75 1.75 0 0 0 1.75-1.75v-104.25a1.75 1.75 0 0 0 -1.75-1.75h-78a1.75 1.75 0 0 0 -1.75 1.75v104.25a1.75 1.75 0 0 0 1.75 1.75zm-76.25-104.25h74.5v100.75h-74.5z"/><path d="m59.065 73.115a7.266 7.266 0 1 0 -7.265-7.268 7.275 7.275 0 0 0 7.265 7.268zm0-11.032a3.766 3.766 0 1 1 -3.765 3.764 3.768 3.768 0 0 1 3.765-3.764z"/><path d="m52.294 76.24a7.267 7.267 0 1 0 -7.269 7.269 7.277 7.277 0 0 0 7.269-7.269zm-11.033 0a3.767 3.767 0 1 1 3.764 3.769 3.771 3.771 0 0 1 -3.764-3.769z"/><path d="m73.05 84.148a7.267 7.267 0 1 0 -7.263-7.269 7.276 7.276 0 0 0 7.263 7.269zm0-11.033a3.767 3.767 0 1 1 -3.763 3.764 3.771 3.771 0 0 1 3.763-3.764z"/><path d="m49.993 86.354a7.267 7.267 0 1 0 7.264 7.27 7.278 7.278 0 0 0 -7.264-7.27zm0 11.034a3.767 3.767 0 1 1 3.764-3.764 3.771 3.771 0 0 1 -3.764 3.764z"/><path d="m68.451 86.046a7.267 7.267 0 1 0 5.305 12.232 7.2 7.2 0 0 0 1.964-4.963 7.277 7.277 0 0 0 -7.269-7.269zm2.749 9.837a3.764 3.764 0 0 1 -6.517-2.568 3.767 3.767 0 1 1 7.533 0 3.723 3.723 0 0 1 -1.016 2.568z"/><path d="m63.21 82.4a4.148 4.148 0 1 0 -4.148 4.149 4.152 4.152 0 0 0 4.148-4.149z"/><path d="m95.534 95.327h-13.161a27.262 27.262 0 1 0 -23.311 13.134c.777 0 1.545-.041 2.3-.105h34.172a1.75 1.75 0 0 0 1.75-1.75v-9.529a1.75 1.75 0 0 0 -1.75-1.75zm-60.234-14.133a23.754 23.754 0 1 1 29.48 23.068c-.03.008-.061.014-.091.021q-.522.127-1.051.232c-.077.015-.155.027-.233.042-.308.057-.617.11-.928.156-.106.015-.214.027-.32.04-.292.039-.585.074-.879.1-.729.068-1.466.107-2.212.107a23.794 23.794 0 0 1 -23.766-23.766zm58.488 23.662h-21.195c.03-.017.058-.038.088-.055.618-.358 1.221-.736 1.807-1.139.1-.066.189-.135.284-.2.537-.38 1.063-.774 1.57-1.191.138-.112.27-.231.405-.346q.584-.5 1.136-1.028c.215-.2.427-.411.636-.624q.51-.52.992-1.069c.113-.128.237-.244.348-.375h13.925z"/><path d="m17 81.75a1.75 1.75 0 0 0 1.75-1.75v-3.118a1.75 1.75 0 0 0 -3.5 0v3.118a1.75 1.75 0 0 0 1.75 1.75z"/></g></g></svg>