<svg id="Layer_5" enable-background="new 0 0 64 64" height="512" viewBox="0 0 64 64" width="512" xmlns="http://www.w3.org/2000/svg"><g><g><g><path d="m30.7 53c-.66 1.83-2.35 3.17-4.39 3.29l-6.38.4 2.51-14.48c.01-.08.03-.17.03-.25h.01c1.43-.23 2.52-1.47 2.52-2.96v-1c3.46.58 6.46 2.36 8.6 4.88.63.75 1.19 1.56 1.66 2.43 1.11 2.05 1.74 4.39 1.74 6.86 0 .28-.01.56-.04.83z" fill="#b4dd7f"/></g><g><path d="m18 42-3.91 12.51-.25-1.51h-.01-6.8c-.02-.27-.03-.55-.03-.83 0-2.47.62-4.81 1.74-6.86 1.5-2.76 3.88-4.99 6.81-6.28.29.63.69 1.21 1.19 1.71z" fill="#b4dd7f"/></g><g><path d="m24.49 35.97c2.53-.24 4.51-2.38 4.51-4.97v-7.84c0-1.89-1.21-3.56-3-4.16-1.3.98-2.74 1.72-4.26 2.23s-3.12.77-4.74.77c-.55 0-1.05.22-1.41.59-.37.36-.59.86-.59 1.41v7c0 1.72.87 3.24 2.19 4.15-.21-.1-.43-.15-.65-.15-.85 0-1.54.69-1.54 1.54 0 .87.19 1.72.55 2.49-2.93 1.29-5.31 3.52-6.81 6.28-.81-.55-1.4-1.39-1.63-2.35-.34-1.48.13-2.86 1.06-3.79 1.93-1.92 2.83-4.64 2.83-7.36v-8.81c0-3.04 1.23-5.79 3.22-7.78s4.74-3.22 7.78-3.22c3.35 0 6.34 1.49 8.36 3.85-.23.33-.36.72-.36 1.15 0 1.1.9 2 2 2 .08 0 .16 0 .24-.02.49 1.25.76 2.6.76 4.02v8.81c0 2.72.9 5.44 2.83 7.36.93.93 1.4 2.31 1.06 3.79-.23.96-.82 1.8-1.63 2.35-.47-.87-1.03-1.68-1.66-2.43-2.14-2.52-5.14-4.3-8.6-4.88l-.51-2.02z" fill="#656d78"/></g><g><path d="m32 15c1.1 0 2 .9 2 2 0 1.02-.77 1.86-1.76 1.98-.08.02-.16.02-.24.02-1.1 0-2-.9-2-2 0-.43.13-.82.36-1.15.37-.51.97-.85 1.64-.85z" fill="#ff826e"/></g><g><circle cx="5" cy="17" fill="#ff826e" r="2"/></g><g><path d="m43.36 25.27c.36.86.57 1.78.62 2.73.01.17.02.34.02.51 0 .79.17 1.53.47 2.21h-.01c-.91 1.18-1.46 2.67-1.46 4.28 0 3.87 3.13 7 7 7s7-3.13 7-7c0-1.61-.54-3.1-1.46-4.28h-.01c.3-.68.47-1.43.47-2.21 0-.17.01-.34.02-.51.05-.95.26-1.87.62-2.73.06-.14.12-.28.19-.41l3.78 3.78-.74 1.53c.2.41.38.83.53 1.26l1.6.57v6l-1.6.57c-.15.43-.33.85-.53 1.26l.74 1.53-4.25 4.25-1.53-.74c-.41.2-.83.38-1.26.53l-.57 1.6h-6l-.57-1.6c-.43-.15-.85-.33-1.26-.53l-1.53.74-4.25-4.25.74-1.53c-.2-.41-.38-.83-.53-1.26l-1.6-.57v-6l1.6-.57c.15-.43.33-.85.53-1.26l-.74-1.53 3.74-3.74.04-.02c.07.13.13.26.19.39z" fill="#ffc729"/></g><g><path d="m55.54 30.72c.92 1.18 1.46 2.67 1.46 4.28 0 3.87-3.13 7-7 7s-7-3.13-7-7c0-1.61.55-3.1 1.46-4.28h.01c.56 1.28 1.6 2.3 2.89 2.85-.23.43-.36.91-.36 1.43 0 1.66 1.34 3 3 3s3-1.34 3-3c0-.52-.13-1-.36-1.43.66-.28 1.26-.69 1.75-1.18.48-.48.87-1.04 1.14-1.67z" fill="#fcd770"/></g><g><path d="m56 28h.02c-.01.17-.02.34-.02.51 0 .78-.17 1.53-.47 2.21-.27.63-.66 1.19-1.14 1.67-.49.49-1.09.9-1.75 1.18-.65.27-1.38.43-2.13.43h-1.02c-.75 0-1.48-.16-2.13-.43-1.29-.55-2.33-1.57-2.89-2.85-.3-.68-.47-1.42-.47-2.21 0-.17-.01-.34-.02-.51h.02 4 4z" fill="#aab2bd"/></g><g><path d="m58.49 5.51c-2.17-2.17-5.17-3.51-8.49-3.51-6.63 0-12 5.37-12 12v.03c0 1.59.32 3.15.91 4.59.6 1.44 1.47 2.76 2.6 3.89.7.7 1.26 1.5 1.66 2.37.07.13.13.26.19.39.36.86.57 1.78.62 2.73h.02 4 4 4 .02c.05-.95.26-1.87.62-2.73.06-.14.12-.28.19-.41.41-.86.97-1.66 1.66-2.35 2.25-2.25 3.51-5.3 3.51-8.48v-.03c0-3.32-1.34-6.32-3.51-8.49z" fill="#ffeaa7"/></g><g><path d="m55.41 10.59c.37.36.59.86.59 1.41s-.22 1.05-.59 1.41c-.36.37-.86.59-1.41.59h-2v-2c0-1.1.9-2 2-2 .55 0 1.05.22 1.41.59z" fill="#fcd770"/></g><g><path d="m48 12v2h-2c-1.1 0-2-.9-2-2 0-.55.22-1.05.59-1.41.36-.37.86-.59 1.41-.59s1.05.22 1.41.59c.37.36.59.86.59 1.41z" fill="#fcd770"/></g><g><path d="m30.7 53h6.26c-.42 5.04-4.64 9-9.79 9h-13.06c1.41 0 2.73-.51 3.74-1.36 1.02-.86 1.75-2.06 1.99-3.46l.08-.49h.01l6.38-.4c2.04-.12 3.73-1.46 4.39-3.29z" fill="#f0d0b4"/></g><g><path d="m29 23.16v7.84c0 2.59-1.98 4.73-4.51 4.97-.16.02-.32.03-.49.03h-4c-.94 0-1.82-.26-2.57-.71l-.04-.03c-.07-.04-.13-.08-.2-.11-1.32-.91-2.19-2.43-2.19-4.15v-7c0-.55.22-1.05.59-1.41.36-.37.86-.59 1.41-.59 1.62 0 3.22-.26 4.74-.77s2.96-1.25 4.26-2.23c1.79.6 3 2.27 3 4.16z" fill="#f0d0b4"/></g><g><path d="m25 38v1c0 1.49-1.09 2.73-2.52 2.96h-.01c.24-1.87-.6-3.72-2.18-4.77l-2.86-1.9c.75.45 1.63.71 2.57.71h4c.17 0 .33-.01.49-.03v.01z" fill="#f0d0b4"/></g><g><path d="m14.09 54.51 3.91-12.51-1.26-1.26c-.5-.5-.9-1.08-1.19-1.71-.36-.77-.55-1.62-.55-2.49 0-.85.69-1.54 1.54-1.54.22 0 .44.05.65.15.07.03.13.07.2.11l.04.03 2.86 1.9c1.58 1.05 2.42 2.9 2.18 4.77 0 .08-.02.17-.03.25l-2.51 14.48h-.01l-.08.49c-.24 1.4-.97 2.6-1.99 3.46-1.01.85-2.33 1.36-3.74 1.36-1.94 0-3.76-.97-4.84-2.59l-.14-.22c-1.23-1.85-1.96-3.98-2.1-6.19h6.8.01z" fill="#f0d0b4"/></g></g><g><path d="m60.978 30.178.836-1.749-3.749-3.749c.314-.523.686-1.015 1.128-1.458 2.454-2.455 3.807-5.72 3.807-9.222 0-7.168-5.832-13-13-13s-13 5.832-13 13.029c0 3.473 1.353 6.737 3.808 9.192.443.443.815.935 1.129 1.458l-3.75 3.749.836 1.749c-.069.156-.135.313-.196.471l-1.827.644v7.416l1.826.644c.062.157.127.314.196.471l-.836 1.749 5.242 5.242 1.749-.836c.156.069.313.135.471.196l.644 1.826h7.416l.644-1.826c.157-.062.314-.127.471-.196l1.749.836 5.242-5.242-.836-1.749c.069-.156.135-.313.196-.471l1.826-.644v-7.416l-1.826-.644c-.062-.157-.127-.314-.196-.47zm-4.978 4.822c0 3.309-2.691 6-6 6s-6-2.691-6-6c0-.823.182-1.611.496-2.347.457.55 1.007 1.019 1.621 1.393-.076.312-.117.632-.117.954 0 2.206 1.794 4 4 4s4-1.794 4-4c0-.322-.041-.642-.117-.954.613-.375 1.163-.843 1.621-1.393.314.736.496 1.524.496 2.347zm-9-22h-1c-.552 0-1-.448-1-1s.448-1 1-1 1 .448 1 1zm4 14h-2v-12h2zm3.951 2c-.246 2.243-2.129 4-4.436 4h-1.029c-2.307 0-4.191-1.757-4.436-4zm-2.951 6c0 1.103-.897 2-2 2s-2-.897-2-2c0-.059.016-.115.021-.173.472.109.96.173 1.464.173h1.029c.504 0 .993-.064 1.464-.173.006.058.022.114.022.173zm-13-21c0-6.065 4.935-11 11-11s11 4.935 11 11.029c0 2.938-1.145 5.7-3.222 7.778-1.429 1.428-2.335 3.235-2.648 5.192h-2.13v-11.999h1c1.654 0 3-1.346 3-3s-1.346-3-3-3-3 1.346-3 3v1h-2v-1c0-1.654-1.346-3-3-3s-3 1.346-3 3 1.346 3 3 3h1v12h-2.13c-.313-1.957-1.219-3.764-2.648-5.192-2.077-2.079-3.222-4.84-3.222-7.808zm14-1v-1c0-.552.448-1 1-1s1 .448 1 1-.448 1-1 1zm8 24.292-1.393.491-.156.459c-.13.382-.291.767-.477 1.145l-.214.436.639 1.335-3.242 3.242-1.335-.639-.436.214c-.378.186-.763.347-1.145.477l-.459.156-.49 1.392h-4.584l-.491-1.393-.459-.156c-.382-.13-.767-.291-1.145-.477l-.436-.214-1.335.639-3.242-3.242.639-1.335-.214-.436c-.186-.378-.347-.763-.477-1.145l-.156-.459-1.392-.49v-4.584l1.393-.491.156-.459c.13-.382.291-.767.477-1.145l.214-.436-.639-1.335 2.165-2.164c.149.595.234 1.208.234 1.837 0 .73.127 1.429.35 2.084-.87 1.309-1.35 2.81-1.35 4.401 0 4.411 3.589 8 8 8s8-3.589 8-8c0-1.591-.48-3.092-1.35-4.401.223-.655.35-1.354.35-2.084 0-.628.086-1.242.235-1.836l2.164 2.164-.639 1.335.214.436c.186.378.347.763.477 1.145l.156.459 1.393.49z"/><circle cx="19" cy="26" r="1"/><circle cx="25" cy="26" r="1"/><path d="m22 30c-1.615 0-3.067.897-3.789 2.342l-.105.211 1.789.895.105-.212c.381-.762 1.147-1.236 2-1.236s1.619.474 2 1.236l.105.211 1.789-.895-.105-.211c-.722-1.444-2.174-2.341-3.789-2.341z"/><path d="m37.863 43.185c.4-1.726-.098-3.492-1.331-4.724-1.609-1.607-2.532-4.031-2.532-6.652v-8.809c0-1.169-.17-2.314-.498-3.418.891-.521 1.498-1.477 1.498-2.582 0-1.654-1.346-3-3-3-.583 0-1.123.174-1.584.463-2.238-2.206-5.247-3.463-8.416-3.463-6.617 0-12 5.383-12 12v8.809c0 2.621-.923 5.046-2.531 6.652-1.234 1.231-1.732 2.998-1.332 4.724.209.899.691 1.735 1.359 2.391-.962 2.022-1.496 4.263-1.496 6.59 0 2.706.794 5.327 2.296 7.58l.146.22c1.267 1.9 3.386 3.034 5.669 3.034h13.059c5.972 0 10.83-4.858 10.83-10.835 0-2.355-.533-4.592-1.484-6.599.662-.655 1.14-1.487 1.347-2.381zm-5.863-27.185c.552 0 1 .448 1 1s-.448 1-1 1-1-.448-1-1 .448-1 1-1zm-23.914 26.733c-.247-1.064.043-2.105.796-2.856 2.011-2.009 3.118-4.874 3.118-8.068v-8.809c0-5.514 4.486-10 10-10 2.716 0 5.289 1.111 7.169 3.049-.101.301-.169.617-.169.951 0 1.489 1.093 2.718 2.517 2.951.314.981.483 2.002.483 3.049v8.809c0 3.194 1.107 6.06 3.119 8.068.752.751 1.042 1.792.796 2.856-.081.349-.233.683-.441.983-2.167-3.295-5.576-5.722-9.66-6.58l-.097-.389c2.474-.741 4.283-3.035 4.283-5.747v-7.838c0-2.322-1.48-4.376-3.684-5.11l-.497-.166-.419.314c-2.408 1.806-5.391 2.8-8.4 2.8-1.654 0-3 1.346-3 3v7c0 1.284.409 2.473 1.099 3.45-.662.458-1.099 1.221-1.099 2.085 0 .685.099 1.354.288 1.992-2.37 1.229-4.33 3.038-5.752 5.201-.213-.303-.368-.641-.45-.995zm21.914 5.267v3.303c0 2.106-1.647 3.86-3.751 3.992l-5.123.32 2.235-12.853c1.493-.534 2.527-1.911 2.619-3.532 5.816 1.491 9.937 6.675 10.013 12.77h-4.037c.026-.229.044-.461.044-.697v-3.303zm-15.616 2.221-.397-2.385-1.973.328.639 3.836h-4.647c.061-4.916 2.814-9.387 7.127-11.657.26.395.562.766.903 1.107l.829.829zm9.616-15.221h-4c-2.206 0-4-1.794-4-4v-7c0-.552.448-1 1-1 3.247 0 6.469-1.014 9.135-2.864 1.133.568 1.865 1.731 1.865 3.026v7.838c0 2.206-1.794 4-4 4zm-.28 2 .28 1.124v.876c0 .544-.219 1.035-.574 1.398-.209-1.291-.831-2.487-1.793-3.398zm-13.615 21.855-.146-.22c-.938-1.407-1.549-2.985-1.811-4.635h4.838l.075.452-1.016 3.25 1.908.596 5.181-16.577-1.685-1.685c-.934-.935-1.449-2.179-1.449-3.501 0-.401.5-.666.832-.445l2.902 1.935c1.317.879 1.993 2.454 1.722 4.015l-2.604 14.973c-.401 2.31-2.395 3.987-4.741 3.987-1.613 0-3.11-.802-4.006-2.145zm17.065 2.145h-8.267c.902-.898 1.555-2.044 1.843-3.357l5.628-.352c2.189-.137 4.047-1.447 4.98-3.291h4.452c-.845 3.993-4.395 7-8.636 7z"/><path d="m3 5c0-1.103.897-2 2-2s2 .897 2 2v.395c0 .67-.333 1.292-.891 1.664l-2.109 1.406v3.535h2v-2.465l1.219-.813c1.115-.743 1.781-1.987 1.781-3.327v-.395c0-2.206-1.794-4-4-4s-4 1.794-4 4v1h2z"/><path d="m8 17c0-1.654-1.346-3-3-3s-3 1.346-3 3 1.346 3 3 3 3-1.346 3-3zm-3 1c-.552 0-1-.448-1-1s.448-1 1-1 1 .448 1 1-.448 1-1 1z"/><path d="m30 5c0-1.103.897-2 2-2s2 .897 2 2v.395c0 .67-.333 1.292-.891 1.664l-2.109 1.406v3.535h2v-2.465l1.219-.813c1.115-.743 1.781-1.987 1.781-3.327v-.395c0-2.206-1.794-4-4-4s-4 1.794-4 4v1h2z"/></g></g></svg>