<svg id="Capa_1" enable-background="new 0 0 512 512" height="512" viewBox="0 0 512 512" width="512" xmlns="http://www.w3.org/2000/svg"><g><g><path d="m324.137 504.5h-168.339l-24.048-96.194h192.387z" fill="#dad8db"/><path d="m324.137 408.306h-192.387v96.194h24.048v-11.273c0-6.923 7.063-11.423 13.436-8.72 18.579 7.88 38.606 11.976 58.709 11.976 35.133 0 68.969-12.336 96.194-34.63z" fill="#c8c5c9"/><path d="m372.234 290.868v-42.884c0-70.835-57.423-128.258-128.258-128.258l-32.065 10.274c-70.835 0-128.258 47.149-128.258 117.984v42.884c-9.453 4.513-16.032 14.08-16.032 25.253 0 15.495 12.561 28.056 28.056 28.056h4.008c0 70.835 57.423 128.258 128.258 128.258s128.258-57.423 128.258-128.258h4.008c15.495 0 28.056-12.561 28.056-28.056.001-11.173-6.579-20.74-16.031-25.253z" fill="#eceaec"/><path d="m108.633 344.177h-8.948c0 70.835 57.423 128.258 128.258 128.258 4.059 0 8.061-.238 12.024-.607-60.397-5.622-108.652-53.08-115.421-113.132-.925-8.211-7.65-14.519-15.913-14.519z" fill="#dad8db"/><path d="m211.911 143.774h48.097v-24.048h-48.097c-70.835 0-128.258 57.423-128.258 128.258v40.081h8.016c8.854 0 16.032-7.178 16.032-16.032v-24.048c.001-57.555 46.657-104.211 104.21-104.211z" fill="#dad8db"/><path d="m422.218 121.321c-5.653-1.821-11.06-1.992-16.034-.971-5.09 1.044-9.901-2.556-9.901-7.752v-40.969c0-8.854-7.178-16.032-16.032-16.032h-40.969c-5.195 0-8.796-4.81-7.752-9.9 1.023-4.984.85-10.401-.981-16.065-3.495-10.807-12.779-19.286-23.922-21.486-20.573-4.062-38.602 11.572-38.602 31.418 0 2.294.259 4.521.738 6.665 1.084 4.849-2.925 9.368-7.893 9.368h-40.942c-8.854 0-16.032 7.178-16.032 16.032v40.968c0 5.196 4.812 8.796 9.902 7.752 4.974-1.02 10.381-.85 16.035.972 10.812 3.483 19.3 12.763 21.509 23.906 4.081 20.584-11.559 38.629-31.413 38.629-2.294 0-4.521-.258-6.665-.738-4.849-1.084-9.368 2.925-9.368 7.893v40.942c0 8.854 7.178 16.032 16.032 16.032h40.969c5.195 0 8.796-4.811 7.752-9.9-1.023-4.984-.85-10.402.982-16.066 3.495-10.806 12.779-19.285 23.921-21.485 20.573-4.062 38.602 11.572 38.602 31.418 0 2.294-.259 4.521-.738 6.665-1.084 4.849 2.925 9.368 7.893 9.368h40.942c8.854 0 16.032-7.178 16.032-16.032v-40.943c0-4.968 4.519-8.977 9.368-7.893 2.144.479 4.371.738 6.665.738 19.854 0 35.493-18.045 31.413-38.629-2.211-11.142-10.699-20.422-21.511-23.905z" fill="#a4ccff"/><g fill="#8bb3ea"><path d="m268.087 223.935h-24.111c-8.84 0-16.032-7.192-16.032-16.032v-24.048-1.047c-2.566.661-5.243 1.047-8.016 1.047-2.294 0-4.521-.259-6.665-.738-4.849-1.084-9.367 2.924-9.367 7.893v40.942c0 8.854 7.179 16.032 16.032 16.032h40.969c5.195 0 8.796-4.81 7.752-9.9-.906-4.415-.799-9.184.493-14.149z"/><path d="m213.796 120.349c4.415-.905 9.183-.798 14.148.493v-65.245h-8.016c-8.854 0-16.032 7.178-16.032 16.032v40.968c-.001 5.196 4.811 8.796 9.9 7.752z"/><path d="m396.282 223.935h-65.176c.662 2.566 1.047 5.243 1.047 8.016 0 2.294-.258 4.52-.738 6.664-1.084 4.849 2.924 9.368 7.893 9.368h40.942c8.854 0 16.032-7.178 16.032-16.032z"/></g></g><g><path d="m360.209 280.564c-4.142 0-7.5 3.358-7.5 7.5s3.358 7.5 7.5 7.5c11.335 0 20.557 9.222 20.557 20.557s-9.222 20.557-20.557 20.557h-4.008c-4.142 0-7.5 3.357-7.5 7.5 0 66.586-54.172 120.758-120.758 120.758s-120.758-54.172-120.758-120.758c0-4.143-3.358-7.5-7.5-7.5h-4.008c-11.334 0-20.556-9.222-20.556-20.557s9.222-20.557 20.556-20.557c4.142 0 7.5-3.358 7.5-7.5s-3.358-7.5-7.5-7.5c-1.533 0-3.041.108-4.524.298v-32.878c0-52.312 33.363-98.425 83.019-114.746 3.935-1.293 6.077-5.532 4.783-9.467-1.294-3.936-5.534-6.077-9.467-4.783-55.827 18.349-93.335 70.189-93.335 128.996v38.442c-9.649 6.365-16.032 17.296-16.032 29.695 0 18.495 14.193 33.737 32.261 35.405 1.634 30.453 13.356 58.269 31.868 80.168v72.806c0 4.142 3.358 7.5 7.5 7.5s7.5-3.358 7.5-7.5v-57.627c23.808 20.591 54.821 33.062 88.693 33.062s64.886-12.472 88.694-33.062v57.627c0 4.142 3.358 7.5 7.5 7.5s7.5-3.358 7.5-7.5v-72.805c18.513-21.9 30.234-49.716 31.868-80.168 18.067-1.668 32.261-16.91 32.261-35.405 0-19.607-15.951-35.558-35.557-35.558z"/><path d="m412.314 112.226c-2.892 0-5.741.322-8.532.962v-41.559c0-12.976-10.557-23.532-23.532-23.532h-16.033c-4.142 0-7.5 3.358-7.5 7.5s3.358 7.5 7.5 7.5h16.033c4.705 0 8.532 3.828 8.532 8.532v52.544c0 2.684 1.435 5.164 3.761 6.502 2.327 1.338 5.191 1.33 7.511-.02 3.91-2.275 8.034-3.429 12.26-3.429 13.545 0 24.564 11.02 24.564 24.564s-11.02 24.564-24.564 24.564c-4.225 0-8.35-1.153-12.26-3.429-2.321-1.351-5.185-1.357-7.511-.02-2.327 1.338-3.761 3.818-3.761 6.501v52.544c0 4.705-3.828 8.532-8.532 8.532h-41.559c.641-2.792.962-5.64.962-8.532 0-21.816-17.749-39.564-39.564-39.564s-39.564 17.749-39.564 39.564c0 2.892.322 5.741.962 8.532h-41.56c-4.705 0-8.532-3.828-8.532-8.532v-41.559c2.792.64 5.64.962 8.532.962 21.816 0 39.564-17.748 39.564-39.564 0-21.815-17.749-39.564-39.564-39.564-2.892 0-5.741.322-8.532.962v-41.558c0-4.705 3.828-8.532 8.532-8.532h52.544c2.684 0 5.164-1.435 6.501-3.761 1.338-2.327 1.331-5.191-.02-7.511-2.275-3.91-3.429-8.035-3.429-12.26 0-13.545 11.02-24.564 24.564-24.564s24.564 11.02 24.564 24.564c0 4.225-1.154 8.35-3.43 12.259-2.083 3.58-.871 8.171 2.709 10.255 3.579 2.083 8.17.871 10.255-2.709 3.627-6.231 5.466-12.894 5.466-19.805.002-21.816-17.746-39.565-39.562-39.565s-39.564 17.749-39.564 39.564c0 2.892.322 5.741.962 8.532h-41.56c-12.976 0-23.532 10.557-23.532 23.532v52.544c0 2.684 1.435 5.164 3.761 6.502s5.191 1.33 7.511-.02c3.91-2.275 8.034-3.429 12.26-3.429 13.545 0 24.564 11.02 24.564 24.564s-11.02 24.564-24.564 24.564c-4.225 0-8.35-1.153-12.26-3.429-2.321-1.351-5.185-1.357-7.511-.02-2.327 1.338-3.761 3.818-3.761 6.501v52.544c0 12.976 10.557 23.532 23.532 23.532h52.544c2.684 0 5.164-1.434 6.501-3.761 1.338-2.327 1.331-5.191-.02-7.511-2.275-3.91-3.429-8.035-3.429-12.26 0-13.545 11.02-24.564 24.564-24.564s24.564 11.02 24.564 24.564c0 4.225-1.154 8.35-3.43 12.259-1.35 2.32-1.358 5.185-.02 7.512s3.818 3.761 6.502 3.761h52.544c12.976 0 23.532-10.556 23.532-23.532v-41.559c2.792.64 5.64.962 8.532.962 21.816 0 39.564-17.748 39.564-39.564.004-21.813-17.745-39.562-39.561-39.562z"/></g></g></svg>